<svg xmlns="http://www.w3.org/2000/svg" viewBox="0 0 64 64">
  <rect width="64" height="64" rx="16" fill="#111827"/>
  <path d="M32 8 52 16v15c0 13-8 22-20 25-12-3-20-12-20-25V16l20-8Z" fill="#e1085d"/>
  <path d="M32 15 45 20v10c0 9-5 15-13 18-8-3-13-9-13-18V20l13-5Z" fill="#ffffff" opacity=".18"/>
  <path d="M24 43 32 17l8 26" fill="none" stroke="#ffffff" stroke-width="5" stroke-linecap="round" stroke-linejoin="round"/>
  <path d="M27 34h10" fill="none" stroke="#ffffff" stroke-width="5" stroke-linecap="round"/>
  <circle cx="50" cy="47" r="7" fill="#22c55e"/>
  <path d="m47 47 2 2 4-5" fill="none" stroke="#ffffff" stroke-width="2.5" stroke-linecap="round" stroke-linejoin="round"/>
</svg>
